<svg width="24" height="25" viewBox="0 0 24 25" fill="none" xmlns="http://www.w3.org/2000/svg">
<path fill-rule="evenodd" clip-rule="evenodd" d="M3.875 5.5H20.125C20.6083 5.5 21 5.76117 21 6.08333V7.91667C21 8.23883 20.6083 8.5 20.125 8.5H3.875C3.3917 8.5 3 8.23883 3 7.91667V6.08333C3 5.76117 3.3917 5.5 3.875 5.5ZM20.125 10.75H3.875C3.3917 10.75 3 11.0112 3 11.3333V13.1667C3 13.4888 3.3917 13.75 3.875 13.75H20.125C20.6083 13.75 21 13.4888 21 13.1667V11.3333C21 11.0112 20.6083 10.75 20.125 10.75ZM20.125 16H3.875C3.3917 16 3 16.2612 3 16.5833V18.4167C3 18.7388 3.3917 19 3.875 19H20.125C20.6083 19 21 18.7388 21 18.4167V16.5833C21 16.2612 20.6083 16 20.125 16Z" fill="white"/>
</svg>
