<svg width="37" height="38" viewBox="0 0 40 40" fill="none" xmlns="http://www.w3.org/2000/svg">
<g filter="url(#filter0_d_410_1729)">
<circle cx="21.2346" cy="19.069" r="18.1081" stroke="white" stroke-width="0.641124"/>
<path fill-rule="evenodd" clip-rule="evenodd" d="M17.2923 11.0229C18.2479 10.9823 18.5525 10.9733 20.9866 10.9733C23.4206 10.9733 23.7253 10.983 24.68 11.0229C25.6348 11.0627 26.2864 11.2033 26.8567 11.407C27.4538 11.6152 27.9955 11.9406 28.4435 12.3616C28.8997 12.7742 29.2516 13.2733 29.4765 13.825C29.698 14.3512 29.8496 14.9525 29.8935 15.832C29.9375 16.7152 29.9473 16.9963 29.9473 19.2415C29.9473 21.4874 29.9367 21.7685 29.8935 22.6502C29.8504 23.5297 29.698 24.131 29.4765 24.6572C29.2516 25.2089 28.8991 25.7089 28.4435 26.1221C27.9955 26.5431 27.4538 26.8678 26.8567 27.0752C26.2864 27.2797 25.6348 27.4195 24.6817 27.4601C23.7253 27.5007 23.4206 27.5097 20.9866 27.5097C18.5525 27.5097 18.2479 27.4999 17.2923 27.4601C16.3392 27.4202 15.6876 27.2797 15.1173 27.0752C14.5193 26.8677 13.9775 26.5425 13.5296 26.1221C13.0738 25.7092 12.721 25.2095 12.4959 24.6579C12.2751 24.1317 12.1236 23.5304 12.0796 22.651C12.0357 21.7678 12.0259 21.4867 12.0259 19.2415C12.0259 16.9955 12.0365 16.7144 12.0796 15.8335C12.1228 14.9525 12.2751 14.3512 12.4959 13.825C12.7213 13.2734 13.0744 12.7737 13.5305 12.3608C13.9777 11.9403 14.519 11.6148 15.1165 11.407C15.6867 11.2033 16.3384 11.0635 17.2915 11.0229H17.2923ZM24.6075 12.5112C23.6626 12.4713 23.3791 12.463 20.9866 12.463C18.5941 12.463 18.3106 12.4713 17.3656 12.5112C16.4916 12.548 16.0175 12.6825 15.7014 12.796C15.2835 12.9464 14.9845 13.1245 14.6709 13.4139C14.3736 13.6808 14.1448 14.0057 14.0013 14.3647C13.8783 14.6564 13.7325 15.0938 13.6926 15.9004C13.6494 16.7723 13.6404 17.0339 13.6404 19.2415C13.6404 21.4491 13.6494 21.7107 13.6926 22.5826C13.7325 23.3891 13.8783 23.8266 14.0013 24.1182C14.1447 24.4768 14.3736 24.8022 14.6709 25.0691C14.9601 25.3434 15.3128 25.5546 15.7014 25.6869C16.0175 25.8004 16.4916 25.935 17.3656 25.9718C18.3106 26.0116 18.5933 26.0199 20.9866 26.0199C23.3799 26.0199 23.6626 26.0116 24.6075 25.9718C25.4816 25.935 25.9557 25.8004 26.2718 25.6869C26.6897 25.5366 26.9886 25.3584 27.3023 25.0691C27.5996 24.8022 27.8285 24.4768 27.9719 24.1182C28.0949 23.8266 28.2407 23.3891 28.2806 22.5826C28.3238 21.7107 28.3327 21.4491 28.3327 19.2415C28.3327 17.0339 28.3238 16.7723 28.2806 15.9004C28.2407 15.0938 28.0949 14.6564 27.9719 14.3647C27.809 13.9791 27.6159 13.7033 27.3023 13.4139C27.013 13.1396 26.6609 12.9285 26.2718 12.796C25.9557 12.6825 25.4816 12.548 24.6075 12.5112ZM19.8421 21.7903C20.4813 22.0359 21.193 22.069 21.8557 21.8841C22.5184 21.6992 23.0911 21.3077 23.4757 20.7765C23.8604 20.2454 24.0333 19.6074 23.9648 18.9717C23.8964 18.336 23.5909 17.7419 23.1005 17.2909C22.7879 17.0027 22.4099 16.7819 21.9937 16.6446C21.5776 16.5073 21.1336 16.4569 20.6937 16.4969C20.2539 16.5369 19.8292 16.6664 19.4501 16.8761C19.071 17.0858 18.747 17.3704 18.5015 17.7095C18.2559 18.0486 18.0949 18.4337 18.03 18.8371C17.9651 19.2404 17.9979 19.6521 18.1261 20.0424C18.2543 20.4327 18.4747 20.7918 18.7714 21.0941C19.0682 21.3963 19.4338 21.6341 19.8421 21.7903ZM17.7298 16.2364C18.1575 15.8417 18.6652 15.5287 19.224 15.3151C19.7828 15.1015 20.3817 14.9916 20.9866 14.9916C21.5914 14.9916 22.1904 15.1015 22.7492 15.3151C23.308 15.5287 23.8157 15.8417 24.2434 16.2364C24.6711 16.631 25.0104 17.0995 25.2418 17.6151C25.4733 18.1307 25.5924 18.6834 25.5924 19.2415C25.5924 19.7996 25.4733 20.3522 25.2418 20.8678C25.0104 21.3835 24.6711 21.852 24.2434 22.2466C23.3796 23.0436 22.2081 23.4914 20.9866 23.4914C19.7651 23.4914 18.5935 23.0436 17.7298 22.2466C16.866 21.4496 16.3808 20.3686 16.3808 19.2415C16.3808 18.1143 16.866 17.0334 17.7298 16.2364ZM26.6139 15.6245C26.7199 15.5323 26.8048 15.4213 26.8634 15.2983C26.9221 15.1752 26.9535 15.0426 26.9556 14.9081C26.9577 14.7737 26.9306 14.6403 26.8758 14.5157C26.821 14.3911 26.7397 14.2779 26.6367 14.1829C26.5337 14.0878 26.411 14.0128 26.276 13.9622C26.141 13.9117 25.9964 13.8867 25.8507 13.8886C25.705 13.8906 25.5612 13.9195 25.4279 13.9736C25.2945 14.0278 25.1743 14.1061 25.0743 14.2039C24.8799 14.3941 24.7734 14.6467 24.7775 14.9081C24.7817 15.1696 24.8961 15.4192 25.0964 15.6041C25.2968 15.789 25.5674 15.8945 25.8507 15.8983C26.134 15.9021 26.4078 15.8039 26.6139 15.6245Z" fill="white"/>
</g>
<defs>
<filter id="filter0_d_410_1729" x="0.241166" y="0.640381" width="41.9864" height="41.9863" filterUnits="userSpaceOnUse" color-interpolation-filters="sRGB">
<feFlood flood-opacity="0" result="BackgroundImageFix"/>
<feColorMatrix in="SourceAlpha" type="matrix" values="0 0 0 0 0 0 0 0 0 0 0 0 0 0 0 0 0 0 127 0" result="hardAlpha"/>
<feOffset dy="2.5645"/>
<feGaussianBlur stdDeviation="1.28225"/>
<feComposite in2="hardAlpha" operator="out"/>
<feColorMatrix type="matrix" values="0 0 0 0 0 0 0 0 0 0 0 0 0 0 0 0 0 0 0.25 0"/>
<feBlend mode="normal" in2="BackgroundImageFix" result="effect1_dropShadow_410_1729"/>
<feBlend mode="normal" in="SourceGraphic" in2="effect1_dropShadow_410_1729" result="shape"/>
</filter>
</defs>
</svg>
