<svg width="37" height="38" viewBox="0 0 37 38" fill="none" xmlns="http://www.w3.org/2000/svg">
<circle cx="18.6672" cy="19.069" r="17.7875" stroke="white" stroke-width="0.641124"/>
<path fill-rule="evenodd" clip-rule="evenodd" d="M16.7252 17.6043H19.0862V18.6894C19.4263 18.0653 20.2985 17.5045 21.6087 17.5045C24.1204 17.5045 24.7167 18.7469 24.7167 21.0264V25.248H22.1739V21.5455C22.1739 20.2474 21.8338 19.5154 20.9679 19.5154C19.767 19.5154 19.268 20.3043 19.268 21.5449V25.248H16.7252V17.6043ZM12.3648 25.1483H14.9077V17.5045H12.3648V25.1483ZM15.2719 15.0121C15.272 15.2088 15.2297 15.4035 15.1476 15.585C15.0654 15.7665 14.9449 15.931 14.7932 16.0692C14.4858 16.3511 14.0697 16.5089 13.6362 16.5079C13.2036 16.5077 12.7884 16.3503 12.4805 16.0698C12.3293 15.9312 12.2093 15.7664 12.1273 15.5849C12.0452 15.4034 12.0028 15.2088 12.0024 15.0121C12.0024 14.615 12.1741 14.2349 12.4811 13.9545C12.7887 13.6737 13.2041 13.5162 13.6369 13.5164C14.0704 13.5164 14.4862 13.6741 14.7932 13.9545C15.0996 14.2349 15.2719 14.615 15.2719 15.0121Z" fill="white"/>
</svg>
