<svg width="33" height="32" viewBox="0 0 33 32" fill="none" xmlns="http://www.w3.org/2000/svg">
<path d="M26.5064 28L18.1064 19.6C17.4397 20.1333 16.673 20.5556 15.8064 20.8667C14.9397 21.1778 14.0175 21.3333 13.0397 21.3333C10.6175 21.3333 8.56749 20.4944 6.88971 18.8167C5.21194 17.1389 4.37305 15.0889 4.37305 12.6667C4.37305 10.2444 5.21194 8.19444 6.88971 6.51667C8.56749 4.83889 10.6175 4 13.0397 4C15.4619 4 17.5119 4.83889 19.1897 6.51667C20.8675 8.19444 21.7064 10.2444 21.7064 12.6667C21.7064 13.6444 21.5508 14.5667 21.2397 15.4333C20.9286 16.3 20.5064 17.0667 19.973 17.7333L28.373 26.1333L26.5064 28ZM13.0397 18.6667C14.7064 18.6667 16.123 18.0833 17.2897 16.9167C18.4564 15.75 19.0397 14.3333 19.0397 12.6667C19.0397 11 18.4564 9.58333 17.2897 8.41667C16.123 7.25 14.7064 6.66667 13.0397 6.66667C11.373 6.66667 9.95638 7.25 8.78971 8.41667C7.62305 9.58333 7.03971 11 7.03971 12.6667C7.03971 14.3333 7.62305 15.75 8.78971 16.9167C9.95638 18.0833 11.373 18.6667 13.0397 18.6667Z" fill="white"/>
</svg>
